REM DIRINDEX 1\2\3,1\2\4,1\2\5,1\2\6
REM DIRNAME folder01,folder02,folder03,folder04,folder05,folder06
TITLE ""
FILE "095 095.mp3" MP3
  TRACK 01 AUDIO
    TITLE "0:"
    INDEX 01 00:00:00
  TRACK 02 AUDIO
    TITLE "3:cjc157_3583"
    INDEX 01 00:00:09
  TRACK 03 AUDIO
    TITLE "0:"
    INDEX 01 00:01:54
  TRACK 04 AUDIO
    TITLE "4:cjc157_3584"
    INDEX 01 00:02:24
  TRACK 05 AUDIO
    TITLE "0:"
    INDEX 01 00:03:31
  TRACK 06 AUDIO
    TITLE "5:cjc157_3585"
    INDEX 01 00:04:05
  TRACK 07 AUDIO
    TITLE "0:"
    INDEX 01 00:05:61
  TRACK 08 AUDIO
    TITLE "5:cjc157_3586"
    INDEX 01 00:06:33
  TRACK 09 AUDIO
    TITLE "0:"
    INDEX 01 00:08:38
  TRACK 10 AUDIO
    TITLE "3:cjc157_3587"
    INDEX 01 00:09:08
  TRACK 11 AUDIO
    TITLE "0:"
    INDEX 01 00:10:31
  TRACK 12 AUDIO
    TITLE "4:cjc157_3588"
    INDEX 01 00:11:01
  TRACK 13 AUDIO
    TITLE "0:"
    INDEX 01 00:12:11
  TRACK 14 AUDIO
    TITLE "5:cjc157_3589"
    INDEX 01 00:12:56
  TRACK 15 AUDIO
    TITLE "0:"
    INDEX 01 00:14:15
  TRACK 16 AUDIO
    TITLE "5:cjc157_3590"
    INDEX 01 00:14:66
  TRACK 17 AUDIO
    TITLE "0:"
    INDEX 01 00:16:48
  TRACK 18 AUDIO
    TITLE "3:cjc157_3591"
    INDEX 01 00:17:18
  TRACK 19 AUDIO
    TITLE "0:"
    INDEX 01 00:18:37
  TRACK 20 AUDIO
    TITLE "4:cjc157_3592"
    INDEX 01 00:19:05
  TRACK 21 AUDIO
    TITLE "0:"
    INDEX 01 00:20:08
  TRACK 22 AUDIO
    TITLE "5:cjc157_3593"
    INDEX 01 00:20:49
  TRACK 23 AUDIO
    TITLE "0:"
    INDEX 01 00:22:66
  TRACK 24 AUDIO
    TITLE "5:cjc157_3594"
    INDEX 01 00:23:34
  TRACK 25 AUDIO
    TITLE "0:"
    INDEX 01 00:25:48
  TRACK 26 AUDIO
    TITLE "3:cjc157_3595"
    INDEX 01 00:26:20
  TRACK 27 AUDIO
    TITLE "0:"
    INDEX 01 00:27:47
  TRACK 28 AUDIO
    TITLE "4:cjc157_3596"
    INDEX 01 00:28:17
  TRACK 29 AUDIO
    TITLE "0:"
    INDEX 01 00:29:23
  TRACK 30 AUDIO
    TITLE "5:cjc157_3597"
    INDEX 01 00:29:72
  TRACK 31 AUDIO
    TITLE "0:"
    INDEX 01 00:32:13
  TRACK 32 AUDIO
    TITLE "5:cjc157_3598"
    INDEX 01 00:32:60
  TRACK 33 AUDIO
    TITLE "0:"
    INDEX 01 00:35:06
  TRACK 34 AUDIO
    TITLE "5:cjc157_3599"
    INDEX 01 00:35:55
  TRACK 35 AUDIO
    TITLE "0:"
    INDEX 01 00:37:38
  TRACK 36 AUDIO
    TITLE "5:cjc157_3600"
    INDEX 01 00:38:10
  TRACK 37 AUDIO
    TITLE "0:"
    INDEX 01 00:39:70
  TRACK 38 AUDIO
    TITLE "3:cjc157_3601"
    INDEX 01 00:40:38
  TRACK 39 AUDIO
    TITLE "0:"
    INDEX 01 00:41:51
  TRACK 40 AUDIO
    TITLE "4:cjc157_3602"
    INDEX 01 00:42:23
  TRACK 41 AUDIO
    TITLE "0:"
    INDEX 01 00:43:19
  TRACK 42 AUDIO
    TITLE "5:cjc157_3603"
    INDEX 01 00:43:68
  TRACK 43 AUDIO
    TITLE "0:"
    INDEX 01 00:46:00
  TRACK 44 AUDIO
    TITLE "3:cjc157_3604"
    INDEX 01 00:46:43
  TRACK 45 AUDIO
    TITLE "0:"
    INDEX 01 00:47:54
  TRACK 46 AUDIO
    TITLE "4:cjc157_3605"
    INDEX 01 00:48:24
  TRACK 47 AUDIO
    TITLE "0:"
    INDEX 01 00:49:47
  TRACK 48 AUDIO
    TITLE "5:cjc157_3606"
    INDEX 01 00:50:19
  TRACK 49 AUDIO
    TITLE "0:"
    INDEX 01 00:52:12
  TRACK 50 AUDIO
    TITLE "3:cjc157_3607"
    INDEX 01 00:52:55
  TRACK 51 AUDIO
    TITLE "0:"
    INDEX 01 00:53:64
  TRACK 52 AUDIO
    TITLE "4:cjc157_3608"
    INDEX 01 00:54:34
  TRACK 53 AUDIO
    TITLE "0:"
    INDEX 01 00:55:40
  TRACK 54 AUDIO
    TITLE "5:cjc157_3609"
    INDEX 01 00:56:14
  TRACK 55 AUDIO
    TITLE "0:"
    INDEX 01 00:57:72
  TRACK 56 AUDIO
    TITLE "5:cjc157_3610"
    INDEX 01 00:58:48
  TRACK 57 AUDIO
    TITLE "0:"
    INDEX 01 01:00:70
  TRACK 58 AUDIO
    TITLE "5:cjc157_3611"
    INDEX 01 01:01:38
  TRACK 59 AUDIO
    TITLE "0:"
    INDEX 01 01:03:63
  TRACK 60 AUDIO
    TITLE "3:cjc157_3612"
    INDEX 01 01:04:31
  TRACK 61 AUDIO
    TITLE "0:"
    INDEX 01 01:05:40
  TRACK 62 AUDIO
    TITLE "4:cjc157_3613"
    INDEX 01 01:06:10
  TRACK 63 AUDIO
    TITLE "0:"
    INDEX 01 01:07:10
  TRACK 64 AUDIO
    TITLE "5:cjc157_3614"
    INDEX 01 01:07:55
  TRACK 65 AUDIO
    TITLE "0:"
    INDEX 01 01:09:34
  TRACK 66 AUDIO
    TITLE "3:cjc157_3615"
    INDEX 01 01:10:10
  TRACK 67 AUDIO
    TITLE "0:"
    INDEX 01 01:11:21
  TRACK 68 AUDIO
    TITLE "4:cjc157_3616"
    INDEX 01 01:11:68
  TRACK 69 AUDIO
    TITLE "0:"
    INDEX 01 01:13:20
  TRACK 70 AUDIO
    TITLE "5:cjc157_3617"
    INDEX 01 01:13:67
  TRACK 71 AUDIO
    TITLE "0:"
    INDEX 01 01:16:60
  TRACK 72 AUDIO
    TITLE "3:cjc157_3618"
    INDEX 01 01:17:35
  TRACK 73 AUDIO
    TITLE "0:"
    INDEX 01 01:18:60
  TRACK 74 AUDIO
    TITLE "4:cjc157_3619"
    INDEX 01 01:19:28
  TRACK 75 AUDIO
    TITLE "0:"
    INDEX 01 01:20:40
  TRACK 76 AUDIO
    TITLE "5:cjc157_3620"
    INDEX 01 01:21:12
  TRACK 77 AUDIO
    TITLE "0:"
    INDEX 01 01:22:70
  TRACK 78 AUDIO
    TITLE "5:cjc157_3621"
    INDEX 01 01:23:38
  TRACK 79 AUDIO
    TITLE "0:"
    INDEX 01 01:25:25
